<svg id="LANDING" xmlns="http://www.w3.org/2000/svg" viewBox="0 0 100 100"><defs><style>.cls-1{fill:#efefef;}</style></defs><path class="cls-1" d="M45.68,67.07c-17.1,0-32.72-8.66-38.86-21.55a1.52,1.52,0,0,1,0-1.3c6.28-13,21.51-21.42,38.8-21.42,17.1,0,32.71,8.66,38.85,21.55a1.48,1.48,0,0,1,0,1.3A32.36,32.36,0,0,1,80.39,52a1.5,1.5,0,0,1-2.32-1.91A28.73,28.73,0,0,0,81.44,45C75.58,33.48,61.29,25.8,45.62,25.8S15.75,33.44,9.85,44.88C15.71,56.39,30,64.07,45.68,64.07a48.44,48.44,0,0,0,10.66-1.18A1.5,1.5,0,0,1,57,65.81,50.68,50.68,0,0,1,45.68,67.07Z"/><path class="cls-1" d="M46.11,31.8a13,13,0,1,0,13,13A13,13,0,0,0,46.11,31.8Zm0,4.75a8.25,8.25,0,0,0-8.24,8.24,1.5,1.5,0,0,1-3,0A11.25,11.25,0,0,1,46.11,33.55a1.5,1.5,0,0,1,0,3Z"/><path class="cls-1" d="M89.59,77.2H54a3.73,3.73,0,0,1-3.23-5.6l17.8-30.83a3.73,3.73,0,0,1,6.47,0L92.82,71.6a3.73,3.73,0,0,1-3.23,5.6ZM71.15,42.27,53.35,73.1a.72.72,0,0,0,0,.74.71.71,0,0,0,.63.36H89.59a.71.71,0,0,0,.63-.36.72.72,0,0,0,0-.74L72.42,42.27a.73.73,0,0,0-1.27,0Z"/><path class="cls-1" d="M73.87,68.13A1.89,1.89,0,1,1,72,66.19,1.82,1.82,0,0,1,73.87,68.13Zm-.05-15.34v4.35l-.66,6.93H70.88l-.67-6.93V52.79Z"/></svg>