<svg id="LANDING" xmlns="http://www.w3.org/2000/svg" viewBox="0 0 138 75"><defs><style>.cls-1{fill:#e71096;}.cls-2{fill:none;stroke:#e71096;stroke-linecap:round;stroke-linejoin:round;stroke-width:3px;}</style></defs><title>icon</title><path class="cls-1" d="M76.15,14.35a1.82,1.82,0,0,0,1.71-1.15c.26-.63.44-1.29.68-1.93.79-2,1.47-4.11,3.39-5.47a1.74,1.74,0,0,0,.34-2.43,1.89,1.89,0,0,0-2.49-.64,6,6,0,0,0-1.44,1.06C76.09,6.11,75,9.06,74.27,12.1A1.88,1.88,0,0,0,76.15,14.35Z"/><path class="cls-2" d="M121.43,72.5a97.51,97.51,0,0,1-1.77-15.57l2.49,3.34c1,1.38,2,2.84,3.11,4.11a5.58,5.58,0,0,0,9.38-1.82,5.74,5.74,0,0,0-1.06-5.8c-4.78-6.19-9.58-12.37-14.31-18.59a6.69,6.69,0,0,0-5.87-2.82c-4.9.08-9.8,0-14.7,0a3.43,3.43,0,0,1-2.14-.67c-5-3.56-10.29-6.56-14.74-10.81a5,5,0,0,0-5.19-1.06,5.56,5.56,0,0,0-2.29,9.41,33.71,33.71,0,0,0,4.47,3.88c3.34,2.42,6.76,4.72,10.16,7.06,1.83,1.27,3.68,2.52,5.5,3.76.36,3.89.74,7.7,1,11.51.34,4.05.84,8.09.31,12.2-.08.61-.15,1.21-.21,1.82"/><path class="cls-2" d="M104.71,33.12a13.32,13.32,0,1,0-.5-26.63,13.48,13.48,0,0,0-13,13.5A13.43,13.43,0,0,0,104.71,33.12Z"/><path class="cls-2" d="M32.64,37.24A13.32,13.32,0,1,0,19.51,23.9,13.35,13.35,0,0,0,32.64,37.24Z"/><path class="cls-1" d="M64.92,12.62a8.56,8.56,0,0,1,1.72,2,34.71,34.71,0,0,1,1.57,3.64c.2.47.31,1,.51,1.45a1.79,1.79,0,0,0,1.67,1.19,1.93,1.93,0,0,0,1.85-2.68,48.67,48.67,0,0,0-2.18-5.47,7.35,7.35,0,0,0-3-3.32,1.91,1.91,0,0,0-2.72.44A2,2,0,0,0,64.92,12.62Z"/><path class="cls-2" d="M41.39,72.5a15.47,15.47,0,0,1-.13-2.71c.36-4.63.81-9.25,1.23-13.86.15-1.63.31-3.25.47-4.87,3.84-2.61,7.6-5.26,11.45-7.76a84.59,84.59,0,0,0,12.8-10.78,5.49,5.49,0,0,0,1-6.75A5.66,5.66,0,0,0,62.11,23a6.78,6.78,0,0,0-3.18,1.84c-2.78,2.5-5.47,5.11-8.43,7.38-3.23,2.49-6.7,4.66-10.09,6.92a2.87,2.87,0,0,1-1.44.38c-1.55,0-3.1,0-4.64,0h-9.8A6.49,6.49,0,0,0,19,42Q11.73,51.43,4.44,60.85a9.31,9.31,0,0,0-.84,1.3,5.61,5.61,0,0,0,9,6.47A18.18,18.18,0,0,0,13.91,67c1.18-1.57,2.35-3.16,3.52-4.74l.3.06c-.11,1.23-.2,2.46-.31,3.69-.2,2.16-.27,4.35-.64,6.48"/></svg>