<svg id="LANDING" xmlns="http://www.w3.org/2000/svg" viewBox="0 0 100 100"><defs><style>.cls-1,.cls-3{fill:none;stroke:#e51690;stroke-linecap:round;stroke-width:3px;}.cls-1{stroke-miterlimit:10;}.cls-2{fill:#e51690;}.cls-3{stroke-linejoin:round;}</style></defs><path class="cls-1" d="M59.72,63.25V14A4.33,4.33,0,0,0,55.4,9.62H28.78L11.3,27.1v48a4.33,4.33,0,0,0,4.32,4.33H50.39"/><path class="cls-2" d="M36.44,58.84H35.2a.45.45,0,0,1-.51-.51v-3h-.87a5.21,5.21,0,0,1-3.88-1.46,5.38,5.38,0,0,1-1.43-3.93v-1c0-.34.15-.51.47-.51h1.67q.48,0,.48.51v.8c0,2.19,1.07,3.28,3.23,3.28h2.3q3.23,0,3.23-3.35V47.89a2.78,2.78,0,0,0-.94-2.4,5.17,5.17,0,0,0-2.88-.76l-2,0A7.07,7.07,0,0,1,30,43.42c-1-.78-1.49-2.17-1.49-4.19v-2a5,5,0,0,1,5.35-5.38h.87V28.76a.45.45,0,0,1,.51-.51h1.24a.45.45,0,0,1,.51.51v3.09h.25A5,5,0,0,1,41,33.3a5.37,5.37,0,0,1,1.42,3.93v.91c0,.37-.17.55-.51.55H40.26c-.34,0-.51-.18-.51-.55v-.69q0-3.27-3.24-3.27H34.36c-2.16,0-3.23,1.14-3.23,3.42v1.71a2.55,2.55,0,0,0,.92,2.27,5.55,5.55,0,0,0,2.86.71l2.25.07a6.5,6.5,0,0,1,3.93,1.31c1,.8,1.46,2.17,1.46,4.11v2.11a5,5,0,0,1-5.35,5.39H37v3A.45.45,0,0,1,36.44,58.84Z"/><path class="cls-3" d="M28.65,9.49,11.3,27.1H24.58A4.07,4.07,0,0,0,28.65,23Z"/><rect class="cls-3" x="18.03" y="69.44" width="34.96" height="3.88"/><path class="cls-1" d="M65.22,53.72,45.91,87.16a2.24,2.24,0,0,0,1.94,3.35H86.46a2.24,2.24,0,0,0,1.94-3.35L69.09,53.72A2.23,2.23,0,0,0,65.22,53.72Z"/><path class="cls-2" d="M69.39,82.41a2,2,0,1,1-4,0,2,2,0,1,1,4,0Zm0-16.4v4.65l-.71,7.41H66.19l-.71-7.41V66Z"/></svg>