<svg id="LANDING" xmlns="http://www.w3.org/2000/svg" viewBox="0 0 100 100"><defs><style>.cls-1{fill:none;stroke:#e51690;stroke-linecap:round;stroke-linejoin:round;stroke-width:3px;}</style></defs><title>icon</title><path class="cls-1" d="M5,85.76l14.31-20.6L5.92,45.3h14l6.69,10.56L33.33,45.3H47.48L34.26,64.64,48.69,85.76H34.26L26.58,74.22,19,85.76"/><path class="cls-1" d="M95,72H50.87V61.22l20.24-21c2.76-2.85,5-6.1,5-8.29,0-2.6-1.86-4-5.2-4-4.47,0-10.24,2.76-15.6,7.23L48.92,23c7.72-5.45,15.93-8.78,24.54-8.78,11.63,0,20.32,6.1,20.32,15.2,0,6.42-4.79,12.76-11.13,19.18L72.41,58.86H95"/></svg>