<svg id="LANDING" xmlns="http://www.w3.org/2000/svg" viewBox="0 0 90 101"><defs><style>.cls-1,.cls-3{fill:#fff;}.cls-2{fill:#5f2364;}.cls-3{font-size:59.7px;font-family:Rajdhani-Bold, Rajdhani;font-weight:700;}</style></defs><path class="cls-1" d="M86.73,89A10.77,10.77,0,0,1,76,98.72c-3.67,0-7.35,0-11,0H15.68a10.85,10.85,0,0,1-11-8.86,6,6,0,0,1-.13-1.11c0-3.75,0-7.49,0-11.24a1.66,1.66,0,0,1,1.7-1.77,1.73,1.73,0,0,1,1.65,1.84c0,.24,0,.48,0,.72V87.5a7.44,7.44,0,0,0,7.83,7.82h60a7.41,7.41,0,0,0,7.8-7.83q0-22.17,0-44.34c0-.88-.25-1-1.07-1q-36.72,0-73.46,0c-.88,0-1.13.18-1.12,1.1.05,4.8,0,9.61,0,14.41a3.77,3.77,0,0,1,0,1,1.59,1.59,0,0,1-1.71,1.31,1.54,1.54,0,0,1-1.55-1.36,6,6,0,0,1,0-1.12V28.55c0-6.83,2.71-10.38,9.27-12.14a14.57,14.57,0,0,1,2.64-.08H26.5a4.81,4.81,0,0,0,1.31-.11,6.58,6.58,0,0,0,.1-2.12c0-3,0-6.06,0-9.09,0-1.31.44-2,1.4-2.17s1.64.43,2,1.33c.18,1.83.06,3.66.08,5.49s0,3.94,0,5.91c0,.37-.07.77.53.76,3.53,0,7.06.09,10.59-.07l.2,0a12,12,0,0,0,.1-2.74c0-2.82,0-5.65,0-8.47,0-1.3.43-2,1.39-2.17a1.76,1.76,0,0,1,2,1.33,42.77,42.77,0,0,1,.08,4.67c0,2.24,0,4.48,0,6.73,0,.45,0,.77.63.77,3.36,0,6.72,0,10.09,0a2.53,2.53,0,0,0,.6-.11,2.28,2.28,0,0,0,.09-1.1c0-3.4,0-6.81,0-10.21,0-1.31.68-2.11,1.71-2.11s1.69.81,1.69,2.12c0,3.51,0,7,0,10.52,0,.79.22.95,1,.95,4.08,0,8.17.11,12.25-.06,4.55-.18,8.19,1.31,10.87,5a6.47,6.47,0,0,1,1.63,4.71c-.15,2.58,0,5.17-.06,7.75q0,3.31,0,6.63,0,23.84,0,47.67A2.34,2.34,0,0,1,86.73,89Z"/><path class="cls-1" d="M6.19,64.63a3,3,0,1,1-3.06,2.91A3,3,0,0,1,6.19,64.63Z"/><path class="cls-2" d="M28,32a1.58,1.58,0,0,0,1.88,1.27,1.65,1.65,0,0,0,1.39-1.84c0-3.53,0-7.06,0-10.59,0-.81.14-1.11,1-1.1,3.46.06,6.93,0,10.39,0,.08.13,0,.22-.11.26H32.67c2.86.06,6.37-.07,9.88.06.39.38.29.88.29,1.34,0,3.39,0,6.78,0,10.16a1,1,0,0,0,.12.3.26.26,0,0,1,0,.29,1.52,1.52,0,0,0,1.93,1.05,1.62,1.62,0,0,0,1.3-1.81c0-3.57,0-7.14,0-10.71,0-.74.16-1,.94-1,3.23.05,6.46,0,9.69,0,.72,0,.91.21.91.91,0,3.37,0,6.73,0,10.1a2.16,2.16,0,0,0,.1,1.1c.18.08.13.2.07.33.74,1.42,2,1.51,3,.21-.06-.08,0-.14.05-.16.29-.36.18-.79.19-1.19,0-3.47,0-6.94,0-10.42,0-.52,0-.89.72-.88,4.81,0,9.61,0,14.41,0a4.19,4.19,0,0,1,.69.13c-.33.26-.72.13-1.08.13H62.08c-.35.05-.15.24-.23.13s0,0,.07-.07a2.28,2.28,0,0,1,.9,0H76.2a2.3,2.3,0,0,0,1.1-.09,7.21,7.21,0,0,1,6.11,6.79c.09,3.78,0,7.56,0,11.33,0,.54-.16.76-.7.69h-70c-.3,0-.61,0-.91,0a1.73,1.73,0,0,1-.28-1.27c0-3.4-.07-6.81,0-10.21a8.22,8.22,0,0,1,3.51-6.71,2.56,2.56,0,0,1,1.6-.59h9.78a2.72,2.72,0,0,1,1.1.11c.42.42.3.95.31,1.45,0,3.39,0,6.78,0,10.17,0,.05,0,.11,0,.16A1.09,1.09,0,0,1,28,32Z"/><text class="cls-3" transform="translate(15.22 87.19)">20</text></svg>