<svg id="LANDING" xmlns="http://www.w3.org/2000/svg" viewBox="0 0 100 100"><defs><style>.cls-1,.cls-2{fill:#e51690;}.cls-2{font-size:18.34px;font-family:Montserrat-Bold, Montserrat;font-weight:700;}</style></defs><path class="cls-1" d="M38.85,71.91l-.64.63a.29.29,0,0,1-.47,0L36.63,71.4l-.24.24a3,3,0,0,1-2.13,1,3,3,0,0,1-2.14-1l-.32-.33a.3.3,0,0,1,0-.49l.88-.87a.3.3,0,0,1,.48,0l.21.21a1.62,1.62,0,0,0,1.09.59,1.73,1.73,0,0,0,1.13-.59l.72-.71a1.61,1.61,0,0,0,.59-1.11,1.75,1.75,0,0,0-.6-1.15l-.44-.45a1.21,1.21,0,0,0-1.15-.45,3.58,3.58,0,0,0-1.35.81,10.53,10.53,0,0,1-1.59,1.26,3.3,3.3,0,0,1-1.08.37,2.83,2.83,0,0,1-2.48-1.11l-.65-.65a3.09,3.09,0,0,1-1-2.16,3,3,0,0,1,1-2.12l.24-.23L26.7,61.24a.29.29,0,0,1,0-.47l.65-.63a.29.29,0,0,1,.47,0l1.12,1.15.07-.07a2.75,2.75,0,0,1,2.08-.88A3.08,3.08,0,0,1,33.2,61.4l.3.3a.3.3,0,0,1,0,.49l-.88.86a.31.31,0,0,1-.5,0L32,62.86a1.6,1.6,0,0,0-1.08-.59,1.63,1.63,0,0,0-1.12.58l-.64.63a1.61,1.61,0,0,0-.6,1.12,1.93,1.93,0,0,0,.65,1.18l.47.48a1.12,1.12,0,0,0,1.08.39,3.58,3.58,0,0,0,1.35-.82l.74-.67a3.8,3.8,0,0,1,2.12-1,2.93,2.93,0,0,1,2.27,1.12l.65.67a3,3,0,0,1,1,2.17,3,3,0,0,1-1,2.12l-.07.07,1.11,1.13a.29.29,0,0,1,0,.47"/><path class="cls-1" d="M77.61,15.5c-2.37,2.59-2.6,5.31-.69,7.31s4.64,2,7.47-.44c.21.19.46.37.67.58,2.77,2.77,5.55,5.54,8.31,8.32,1.78,1.78,1.78,3.5,0,5.3L36.6,93.31c-1.85,1.85-3.54,1.86-5.38,0Q26.89,89,22.57,84.67c-.05-.06-.09-.13-.22-.31,1.3-1.22,2.32-2.71,1.9-4.57a6.6,6.6,0,0,0-1.61-3c-1.87-1.86-4.42-1.52-7.14.75-3.11-3.1-6.25-6.18-9.32-9.32C4.86,66.9,5.05,65,6.52,63.56l15-15L63.27,6.81c2-2,3.63-2,5.64,0l8.7,8.7m-2.48,0L67.75,8.15c-1.39-1.39-1.92-1.39-3.35,0L38.61,34,8.16,64.43c-1.4,1.4-1.39,1.94,0,3.36l6.62,6.62c.24.24.51.46.75.67,3.42-2.14,6.52-1.38,8.43.54A8,8,0,0,1,25.91,79a6.26,6.26,0,0,1-1.12,5.43l7,7c2,2,2.21,2,4.21,0l26.8-26.81,29-29c1.39-1.39,1.39-1.93,0-3.35L85.1,25.5c-.24-.24-.51-.46-.75-.67a6.71,6.71,0,0,1-8.55-.58c-1.86-1.86-3-5-.67-8.77"/><path class="cls-1" d="M33.9,95.21a4.41,4.41,0,0,1-3-1.53l-6.79-6.8L22.22,85a1.18,1.18,0,0,1-.17-.22l-.11-.15A.5.5,0,0,1,22,84c1.51-1.42,2.06-2.72,1.75-4.1a5.94,5.94,0,0,0-1.48-2.72c-2.08-2.09-4.66-.73-6.46.77a.51.51,0,0,1-.68,0l-2.7-2.68C10.26,73.07,8,70.83,5.82,68.6c-1.49-1.53-1.35-3.69.35-5.39Q12.08,57.27,18,51.36L62.91,6.46a4.6,4.6,0,0,1,3.18-1.67h0a4.56,4.56,0,0,1,3.16,1.66L78,15.15a.5.5,0,0,1,0,.69c-2.19,2.39-2.44,4.8-.7,6.63s4.15,1.79,6.78-.47a.49.49,0,0,1,.65,0l.2.17c.17.14.34.28.5.44l.24.24,8.08,8.07c2,2,2,4,0,6L37,93.67a4.44,4.44,0,0,1-3.06,1.54M23,84.4l1.75,1.77q3.39,3.4,6.79,6.8c1.66,1.66,3,1.65,4.68,0Q64.63,64.6,93,36.21c1.59-1.59,1.6-3,0-4.59q-4-4.05-8.08-8.08l-.23-.23L84.39,23c-2.9,2.34-5.67,2.4-7.83.14s-1.89-4.95.37-7.63L68.56,7.16A3.71,3.71,0,0,0,66.1,5.79h0a3.73,3.73,0,0,0-2.47,1.37L18.71,52.07,6.88,63.91c-1.32,1.33-1.45,2.85-.35,4,2.18,2.23,4.43,4.46,6.61,6.63.8.78,1.6,1.57,2.39,2.37,2.83-2.2,5.53-2.36,7.46-.43a7,7,0,0,1,1.74,3.21c.37,1.62-.19,3.17-1.7,4.72m10.87,9c-.68,0-1.36-.54-2.44-1.62l-7-7a.51.51,0,0,1-.05-.65,5.7,5.7,0,0,0,1.05-5A7.61,7.61,0,0,0,23.63,76c-2.05-2.07-5-2.24-7.8-.46a.51.51,0,0,1-.6-.06L15,75.26c-.18-.16-.37-.32-.55-.5L8.83,69.14l-1-1c-1.63-1.63-1.64-2.46,0-4.06L64,7.84c1.63-1.63,2.46-1.64,4.07,0l7.37,7.32a.51.51,0,0,1,.07.62c-2.7,4.32-.22,7.33.6,8.15a6.19,6.19,0,0,0,7.92.52.5.5,0,0,1,.61,0l.23.2c.18.16.37.32.54.5l6.71,6.7c1.61,1.61,1.61,2.49,0,4.07L36.38,91.73c-1.11,1.11-1.79,1.66-2.48,1.66m-8.47-9,6.74,6.72c1.73,1.73,1.73,1.73,3.5,0L91.49,35.21c1.19-1.2,1.19-1.42,0-2.65l-6.7-6.7c-.15-.15-.3-.28-.45-.41a7.11,7.11,0,0,1-9.8-9.9l-7.1-7c-1.2-1.2-1.42-1.19-2.65,0L8.51,64.79c-1.2,1.19-1.19,1.42,0,2.65l1,1c1.87,1.87,3.74,3.75,5.62,5.62.15.15.3.28.45.42,3.71-2.15,6.93-1,8.73.8a8.32,8.32,0,0,1,2.05,3.57,6.56,6.56,0,0,1-1,5.5"/><path class="cls-1" d="M64.52,22.25c-.25.19-.65.71-1.15.83-.9.21-2.06-.92-2.06-1.89a1.12,1.12,0,0,1,1.25-1.25,2.19,2.19,0,0,1,2,2.31"/><path class="cls-1" d="M63.15,23.6a2.15,2.15,0,0,1-1.31-.5,2.6,2.6,0,0,1-1-1.91,1.72,1.72,0,0,1,.45-1.27,1.75,1.75,0,0,1,1.3-.48A2.62,2.62,0,0,1,65,22.23a.49.49,0,0,1-.19.41l-.2.18a2.47,2.47,0,0,1-1.14.74,1.27,1.27,0,0,1-.34,0m-.58-3.16h0a.79.79,0,0,0-.59.18.72.72,0,0,0-.17.57,1.64,1.64,0,0,0,.65,1.12,1,1,0,0,0,.8.28,1.73,1.73,0,0,0,.68-.49L64,22a1.65,1.65,0,0,0-1.44-1.6"/><path class="cls-1" d="M70.05,27.79a2.22,2.22,0,0,1,2.33,1.93A1.14,1.14,0,0,1,71.16,31c-1,0-2.1-1.13-1.91-2.05.1-.5.61-.91.8-1.18"/><path class="cls-1" d="M71.13,31.52a2.59,2.59,0,0,1-1.86-1,2,2,0,0,1-.51-1.67,2.54,2.54,0,0,1,.71-1.16l.18-.21a.51.51,0,0,1,.41-.21,2.7,2.7,0,0,1,2.82,2.43,1.63,1.63,0,0,1-1.71,1.8Zm-.85-3.22-.07.08a1.91,1.91,0,0,0-.48.7,1.1,1.1,0,0,0,.31.82,1.73,1.73,0,0,0,1.11.62c.53,0,.74-.23.73-.79a1.68,1.68,0,0,0-1.6-1.43"/><path class="cls-1" d="M60.56,17.87a1.12,1.12,0,0,1-1.22,1.28,2,2,0,0,1-1.93-1.9A1.12,1.12,0,0,1,58.62,16a2.15,2.15,0,0,1,1.94,1.92"/><path class="cls-1" d="M59.3,19.65A2.31,2.31,0,0,1,57.73,19a2.52,2.52,0,0,1-.82-1.72,1.62,1.62,0,0,1,1.7-1.81,2.26,2.26,0,0,1,1.59.68,2.57,2.57,0,0,1,.86,1.73h0a1.61,1.61,0,0,1-1.71,1.79H59.3m-.64-3.2h0c-.54,0-.74.24-.73.78a1.55,1.55,0,0,0,.5,1,1.26,1.26,0,0,0,.91.39c.55,0,.76-.23.74-.76a1.61,1.61,0,0,0-.54-1,1.35,1.35,0,0,0-.86-.41"/><path class="cls-1" d="M67.45,27a2,2,0,0,1-2.15-1.88,1.11,1.11,0,0,1,1.21-1.29,2.16,2.16,0,0,1,2,1.9c0,.81-.4,1.25-1,1.27"/><path class="cls-1" d="M67.43,27.52a2.54,2.54,0,0,1-2.63-2.37,1.84,1.84,0,0,1,.41-1.29,1.7,1.7,0,0,1,1.29-.51A2.66,2.66,0,0,1,69,25.74a1.56,1.56,0,0,1-1.51,1.78h0m0-.5h0Zm-.92-2.67h0a.74.74,0,0,0-.55.18.91.91,0,0,0-.16.6,1.56,1.56,0,0,0,1.63,1.39h0c.14,0,.55,0,.53-.76a1.68,1.68,0,0,0-1.44-1.41"/><text class="cls-2" transform="translate(41.34 67.59) rotate(-43.28)">800</text></svg>