<svg id="LANDING" xmlns="http://www.w3.org/2000/svg" viewBox="0 0 60 60"><defs><style>.cls-1{fill:#a2a2a2;}.cls-2{fill:#f1f2f2;}</style></defs><title>rs</title><path class="cls-1" d="M49,29.46A19.67,19.67,0,1,1,29.33,9.79,19.67,19.67,0,0,1,49,29.46Zm0,0"/><path class="cls-2" d="M30.92,36.13c-1.49-.11-2.11-.85-3.28-1.56-.64,3.36-1.42,6.59-3.74,8.27-.72-5.08,1.05-8.9,1.87-13-1.4-2.36.17-7.1,3.12-5.93,3.63,1.44-3.15,8.76,1.4,9.67,4.76,1,6.7-8.24,3.75-11.23-4.26-4.32-12.39-.1-11.39,6.09.24,1.51,1.8,2,.62,4.05-2.72-.6-3.54-2.75-3.43-5.61.17-4.69,4.21-8,8.27-8.43,5.13-.58,10,1.88,10.61,6.71.75,5.45-2.32,11.35-7.8,10.92Zm0,0"/></svg>