<svg id="LANDING" xmlns="http://www.w3.org/2000/svg" viewBox="0 0 60 60"><defs><style>.cls-1{fill:#a2a2a2;}</style></defs><title>rs</title><path class="cls-1" d="M47.29,19.28a14.26,14.26,0,0,1-4.07,1.11,7.2,7.2,0,0,0,3.12-3.92,14.3,14.3,0,0,1-4.51,1.72A7.1,7.1,0,0,0,29.56,23a7.18,7.18,0,0,0,.18,1.62,20.15,20.15,0,0,1-14.62-7.41,7.11,7.11,0,0,0,2.19,9.47,7.13,7.13,0,0,1-3.21-.89v.09a7.1,7.1,0,0,0,5.69,7,7,7,0,0,1-3.2.12,7.1,7.1,0,0,0,6.62,4.93,14.21,14.21,0,0,1-8.81,3,13.46,13.46,0,0,1-1.69-.1,20,20,0,0,0,10.87,3.19c13.05,0,20.19-10.81,20.19-20.19,0-.3,0-.61,0-.91a14.36,14.36,0,0,0,3.54-3.67Zm0,0"/></svg>