<svg id="LANDING" xmlns="http://www.w3.org/2000/svg" viewBox="0 0 60 60"><defs><style>.cls-1{fill:#a2a2a2;}.cls-1,.cls-2{fill-rule:evenodd;}.cls-2{fill:#fff;}</style></defs><title>rs</title><path class="cls-1" d="M9.11,22.59c.29-4,1-8.15,6.22-8.45a258.94,258.94,0,0,1,29.22,0c5.19.3,5.93,4.44,6.22,8.45a77.28,77.28,0,0,1,0,12c-.29,4-1,8.16-6.22,8.46a258.94,258.94,0,0,1-29.22,0c-5.19-.3-5.93-4.44-6.22-8.46a77.28,77.28,0,0,1,0-12Z"/><polygon class="cls-2" points="25.64 22.23 36.92 28.15 25.64 34.06 25.64 22.23 25.64 22.23"/></svg>