<svg id="LANDING" xmlns="http://www.w3.org/2000/svg" viewBox="0 0 60 60"><defs><style>.cls-1{fill:#a2a2a2;}</style></defs><title>rs</title><path class="cls-1" d="M39,23.12a2.06,2.06,0,1,1,2-2.05,2.05,2.05,0,0,1-2,2.05Z"/><path class="cls-1" d="M38.35,13.16H21.66a8.51,8.51,0,0,0-8.5,8.5V38.34a8.51,8.51,0,0,0,8.5,8.5H38.35a8.5,8.5,0,0,0,8.49-8.5V21.66A8.5,8.5,0,0,0,38.35,13.16Zm4.83,25.18a4.84,4.84,0,0,1-4.83,4.84H21.66a4.84,4.84,0,0,1-4.84-4.84V21.66a4.84,4.84,0,0,1,4.84-4.84H38.35a4.84,4.84,0,0,1,4.83,4.84Z"/><path class="cls-1" d="M30,21.32A8.68,8.68,0,1,0,38.67,30,8.7,8.7,0,0,0,30,21.32ZM30,35a5,5,0,1,1,5-5A5,5,0,0,1,30,35Z"/></svg>