<svg id="LANDING" xmlns="http://www.w3.org/2000/svg" viewBox="0 0 100 100"><defs><style>.cls-1{fill:none;stroke:#621e66;stroke-linecap:round;stroke-miterlimit:10;stroke-width:3px;}</style></defs><title>icon</title><path class="cls-1" d="M25.67,48.25a5.25,5.25,0,0,1-.44-2.11c-.07-2.47.2-4.92.23-7.38a6.67,6.67,0,0,0-1.06-4,6.46,6.46,0,0,0-8.73-1.68C12.93,34.67,12,37.23,12,40.24c0,2.67.13,5.34,0,8-.23,3.76,0,7.53-.21,11.28-.3,4.78-.18,9.55-.14,14.33a21,21,0,0,0,2.8,9.7A23.54,23.54,0,0,0,26.3,94.29a25.25,25.25,0,0,0,9.59,2A29.84,29.84,0,0,0,49,93.67a45.68,45.68,0,0,0,7.68-4.86c4-2.91,8-5.81,11.91-8.75a6.68,6.68,0,0,0,2.52-7.79,5.57,5.57,0,0,0-4.52-3.69A3.71,3.71,0,0,1,65,67.84"/><path class="cls-1" d="M41.9,52.09c.61.23,1-.15,1.47-.47,3.31-2.46,6.58-5,10-7.28.82-.55,1.75-.85,2.62-1.33.3-1.08,1.26-1.61,2.12-2.25,3.34-2.45,6.67-4.92,10-7.36a7.91,7.91,0,0,0,3.26-4.22,5.93,5.93,0,0,0-5.48-7.73,8.55,8.55,0,0,0-5.37,1.83c-9.36,7-18.83,13.83-28.24,20.76-1.55,1.14-3.14,2.24-4.65,3.45a2.89,2.89,0,0,1-1.89.76,2.72,2.72,0,0,0-.52,2.1"/><path class="cls-1" d="M50,62.89a.79.79,0,0,1,.31-.84c3.66-2.42,7-5.32,10.75-7.59a4,4,0,0,1,.38-.13,6.64,6.64,0,0,0,2.25.48A5.64,5.64,0,0,1,68.63,59a6.2,6.2,0,0,1-1.76,6.42,7,7,0,0,0-1.79,2.11.7.7,0,0,1-.42.42c-2.71,1-4.8,2.87-7.07,4.52,0,0-.13,0-.2,0"/><path class="cls-1" d="M56.12,43.19c.72.29,1.46.53,2.2.77A5.91,5.91,0,0,1,62,52.25a12.89,12.89,0,0,0-.63,2"/><path class="cls-1" d="M69.4,3.68C69,6.39,68.41,9.09,68,11.8a16,16,0,0,0-.56,4.42"/><path class="cls-1" d="M77.19,29.07l11.28,2.11"/><path class="cls-1" d="M86.46,12.74Q81.72,16.12,77,19.47c-.08.06-.25.23-.41.07"/><path class="cls-1" d="M51.8,7.68c2.07,3,4.13,6.05,6.24,9.05a1.47,1.47,0,0,1,.4,1.07"/><path class="cls-1" d="M71.19,36.66a1.2,1.2,0,0,1,1.28.62c2.07,3.07,4.2,6.12,6.3,9.17"/></svg>