<svg id="LANDING" xmlns="http://www.w3.org/2000/svg" viewBox="0 0 100 100"><defs><style>.cls-1,.cls-3{fill:none;stroke:#e51690;stroke-linecap:round;stroke-width:3px;}.cls-1{stroke-miterlimit:10;}.cls-2{fill:#e51690;}.cls-3{stroke-linejoin:round;}</style></defs><title>icon</title><path class="cls-1" d="M12.55,56.53h5.28S27.84,46,28.39,45.69s7.23-3,7.23-3V60.7l7-7a9.75,9.75,0,0,1,13.79,0h0a3.81,3.81,0,0,1,0,5.39L37.8,77.7a7,7,0,0,1-4.93,2H12.55"/><path class="cls-1" d="M35.48,42.5V31.38L54.24,12.62H82.81a4.64,4.64,0,0,1,4.64,4.64V82.88a4.64,4.64,0,0,1-4.64,4.64H40.12a4.64,4.64,0,0,1-4.64-4.64V79.23"/><path class="cls-2" d="M68,53H67a.37.37,0,0,1-.41-.42v-2.5h-.72a4.26,4.26,0,0,1-3.17-1.19,4.37,4.37,0,0,1-1.18-3.22v-.84c0-.28.13-.42.38-.42h1.38c.26,0,.38.14.38.42v.66a2.36,2.36,0,0,0,2.66,2.68h1.88c1.77,0,2.65-.91,2.65-2.74V44A2.27,2.27,0,0,0,70,42a4.23,4.23,0,0,0-2.35-.63l-1.64,0a5.74,5.74,0,0,1-3.37-1c-.82-.64-1.22-1.78-1.22-3.43V35.27a4.08,4.08,0,0,1,4.38-4.41h.72V28.32a.37.37,0,0,1,.41-.41h1a.37.37,0,0,1,.42.41v2.54h.2a4.13,4.13,0,0,1,3.1,1.19,4.41,4.41,0,0,1,1.17,3.22V36c0,.29-.14.44-.42.44H71.12c-.28,0-.42-.15-.42-.44v-.57a2.35,2.35,0,0,0-2.65-2.68H66.29c-1.77,0-2.66.93-2.66,2.8V37a2.11,2.11,0,0,0,.76,1.86,4.59,4.59,0,0,0,2.35.59l1.84,0a5.24,5.24,0,0,1,3.22,1.08A4.13,4.13,0,0,1,73,43.92v1.73a4.08,4.08,0,0,1-4.39,4.41h-.2v2.5A.37.37,0,0,1,68,53Z"/><path class="cls-3" d="M54.1,12.48,35.48,31.38H49.74A4.36,4.36,0,0,0,54.1,27Z"/><rect class="cls-3" x="42.7" y="76.82" width="37.52" height="4.17"/></svg>