<svg id="LANDING" xmlns="http://www.w3.org/2000/svg" viewBox="0 0 100 100"><defs><style>.cls-1{fill:#621e66;}</style></defs><title>icon</title><path class="cls-1" d="M50.11,16A40.55,40.55,0,0,0,9.62,56.36C9.61,78.5,27.73,95.93,50,95.84,72.14,96,90.3,78.65,90.38,56.57A40.52,40.52,0,0,0,50.11,16ZM50,92c-20.07.09-36.44-15.66-36.42-35.65a36.47,36.47,0,1,1,72.93.19C86.38,76.45,70,92.12,50,92Zm39-63.46a1.45,1.45,0,0,1-.44,2.06l-.46.28a1.45,1.45,0,0,1-2-.42A41.33,41.33,0,0,0,75.92,20.24a1.44,1.44,0,0,1-.31-2.09h0l.33-.4a1.46,1.46,0,0,1,1.94-.27A44.08,44.08,0,0,1,88.94,28.51ZM50.45,56.23H81.6A31.15,31.15,0,0,0,50.45,25.08ZM61.65,6.59A2.43,2.43,0,0,1,59.21,9H52.89v3.41H48V9H41.69a2.44,2.44,0,0,1,0-4.87H59.21A2.44,2.44,0,0,1,61.65,6.59Z"/></svg>