<svg id="LANDING" xmlns="http://www.w3.org/2000/svg" viewBox="0 0 90 101"><defs><style>.cls-1,.cls-3{fill:#fff;}.cls-2{fill:#5f2364;}.cls-3{font-size:59.7px;font-family:Montserrat-ExtraBold, Montserrat;font-weight:800;}</style></defs><path class="cls-1" d="M86.73,85.78A10.77,10.77,0,0,1,76,95.5c-3.68,0-7.36,0-11,0H15.68a10.87,10.87,0,0,1-11-8.86,6.11,6.11,0,0,1-.13-1.12c0-3.74,0-7.49,0-11.23a1.67,1.67,0,0,1,1.71-1.78,1.74,1.74,0,0,1,1.64,1.85c0,.23,0,.47,0,.71v9.2a7.45,7.45,0,0,0,7.83,7.82h60a7.42,7.42,0,0,0,7.8-7.84q0-22.17,0-44.34c0-.87-.24-1-1.07-1q-36.72,0-73.46,0c-.88,0-1.13.18-1.12,1.1.05,4.8,0,9.6,0,14.4a3.84,3.84,0,0,1,0,1,1.58,1.58,0,0,1-1.71,1.3,1.53,1.53,0,0,1-1.55-1.35,6,6,0,0,1,0-1.12V25.32c0-6.82,2.71-10.37,9.27-12.14a13.71,13.71,0,0,1,2.64-.07c3.37,0,6.75,0,10.12,0A4.81,4.81,0,0,0,27.81,13a6.28,6.28,0,0,0,.1-2.12c0-3,0-6,0-9.08,0-1.32.44-2,1.4-2.17a1.74,1.74,0,0,1,2,1.32c.18,1.83.06,3.66.08,5.49s0,3.94,0,5.91c0,.37-.08.77.52.77,3.53,0,7.06.08,10.59-.08a.71.71,0,0,0,.2,0,11.87,11.87,0,0,0,.1-2.73c0-2.83,0-5.65,0-8.47,0-1.31.43-2,1.39-2.17a1.76,1.76,0,0,1,2,1.32,43,43,0,0,1,.08,4.68c0,2.24,0,4.48,0,6.72,0,.45,0,.78.63.77,3.36,0,6.72,0,10.09,0a2.53,2.53,0,0,0,.6-.11,2.29,2.29,0,0,0,.09-1.1c0-3.41,0-6.81,0-10.22,0-1.3.68-2.11,1.71-2.1s1.69.8,1.69,2.12c0,3.5,0,7,0,10.52,0,.78.22.95,1,.94,4.08,0,8.17.12,12.25-.05,4.55-.18,8.19,1.3,10.87,5a6.44,6.44,0,0,1,1.63,4.71c-.15,2.58,0,5.16-.06,7.75,0,2.21,0,4.42,0,6.63q0,23.84,0,47.66a2.31,2.31,0,0,1-.07.91"/><path class="cls-1" d="M6.19,61.4a3,3,0,1,1-3.06,2.92A3,3,0,0,1,6.19,61.4"/><path class="cls-2" d="M28,28.73A1.57,1.57,0,0,0,29.92,30a1.64,1.64,0,0,0,1.39-1.83c0-3.53,0-7.07,0-10.6,0-.8.14-1.11,1-1.09,3.46.06,6.93,0,10.39,0,.08.14,0,.22-.11.26H32.67c2.86.06,6.37-.07,9.88,0,.39.39.29.89.29,1.35,0,3.39,0,6.77,0,10.16a1,1,0,0,0,.12.29.27.27,0,0,1,0,.3,1.5,1.5,0,0,0,1.93,1,1.61,1.61,0,0,0,1.3-1.81c0-3.57,0-7.14,0-10.7,0-.75.16-1,.94-1,3.23.05,6.46,0,9.69,0,.72,0,.91.21.91.92,0,3.36,0,6.73,0,10.09a2.16,2.16,0,0,0,.1,1.1c.17.08.13.21.07.34.74,1.42,2,1.51,3,.2-.06-.08,0-.13.05-.16.29-.36.18-.78.19-1.18,0-3.47,0-6.95,0-10.42,0-.52,0-.89.72-.89,4.81,0,9.61,0,14.41,0a3.35,3.35,0,0,1,.69.13c-.33.26-.72.13-1.08.13H62.08c-.35,0-.15.24-.23.13s0-.05.07-.07a2.28,2.28,0,0,1,.9-.05H76.2a2.18,2.18,0,0,0,1.1-.1,7.22,7.22,0,0,1,6.11,6.79c.09,3.78,0,7.56,0,11.34,0,.53-.16.76-.7.69a2.8,2.8,0,0,0-.41,0H12.79c-.3,0-.61,0-.91,0a1.71,1.71,0,0,1-.28-1.26c0-3.41-.07-6.81,0-10.21a8.19,8.19,0,0,1,3.51-6.71,2.45,2.45,0,0,1,1.6-.59h9.78a2.41,2.41,0,0,1,1.1.11c.42.41.3.95.31,1.44,0,3.39,0,6.78,0,10.17l0,.17a1,1,0,0,1,.05.16"/><text class="cls-3" transform="translate(28.06 85.97)">6</text></svg>