<svg id="LANDING" xmlns="http://www.w3.org/2000/svg" viewBox="0 0 90 101"><defs><style>.cls-1{fill:#efefef;}</style></defs><path class="cls-1" d="M9.16,67.36a3,3,0,1,0-3,3A3,3,0,0,0,9.16,67.36Z"/><path class="cls-1" d="M85.22,21.07c-2.68-3.71-6.32-5.2-10.87-5-4.08.17-8.17,0-12.25.06-.75,0-1-.16-1-.95,0-3.5,0-7,0-10.52,0-1.31-.65-2.11-1.69-2.12s-1.71.8-1.71,2.11c0,3.4,0,6.81,0,10.21a2.28,2.28,0,0,1-.09,1.1,2.53,2.53,0,0,1-.6.11c-3.37,0-6.73,0-10.09,0-.62,0-.63-.32-.63-.77,0-2.25,0-4.49,0-6.73a42.77,42.77,0,0,0-.08-4.67,1.76,1.76,0,0,0-2-1.33c-1,.17-1.39.86-1.39,2.17,0,2.82,0,5.65,0,8.47a12,12,0,0,1-.1,2.74l-.2,0c-3.53.16-7.06,0-10.59.07-.6,0-.53-.39-.53-.76,0-2,0-3.94,0-5.91s.1-3.66-.08-5.49c-.37-.9-.95-1.51-2-1.33s-1.39.86-1.4,2.17c0,3,0,6.06,0,9.09a6.58,6.58,0,0,1-.1,2.12,4.81,4.81,0,0,1-1.31.11H16.38a14.57,14.57,0,0,0-2.64.08C7.18,17.9,4.47,21.45,4.47,28.28V57.19a6,6,0,0,0,0,1.12,1.54,1.54,0,0,0,1.55,1.36,1.59,1.59,0,0,0,1.71-1.31,3.77,3.77,0,0,0,0-1c0-4.8,0-9.61,0-14.41,0-.92.24-1.1,1.12-1.1q36.74,0,73.46,0c.82,0,1.08.16,1.07,1q0,22.17,0,44.34a7.41,7.41,0,0,1-7.8,7.83h-60a7.44,7.44,0,0,1-7.83-7.82V78c0-.24,0-.48,0-.72a1.73,1.73,0,0,0-1.65-1.84,1.66,1.66,0,0,0-1.7,1.77c0,3.74,0,7.49,0,11.24a6,6,0,0,0,.13,1.11,10.85,10.85,0,0,0,11,8.86q24.63,0,49.25,0c3.68,0,7.36,0,11,0a10.77,10.77,0,0,0,10.77-9.72,2.28,2.28,0,0,0,.07-.9q0-23.83,0-47.67,0-3.31,0-6.63c0-2.58-.09-5.17.06-7.75A6.47,6.47,0,0,0,85.22,21.07ZM83.45,37.76c0,.54-.16.76-.7.69-.13,0-.27,0-.41,0H12.79c-.3,0-.61,0-.91,0a1.73,1.73,0,0,1-.28-1.27c0-3.4-.07-6.81,0-10.21a8.22,8.22,0,0,1,3.51-6.71,2.5,2.5,0,0,1,1.6-.59h9.78a2.72,2.72,0,0,1,1.1.11c.42.42.3,1,.31,1.45,0,3.39,0,6.78,0,10.17,0,.05,0,.11,0,.16a1.09,1.09,0,0,1,.05.17A1.58,1.58,0,0,0,29.92,33a1.65,1.65,0,0,0,1.39-1.84c0-3.53,0-7.06,0-10.59,0-.81.14-1.11,1-1.1,3.46.06,6.93,0,10.39,0a8.74,8.74,0,0,1,.12,1.66c0,3.39,0,6.78,0,10.16a1,1,0,0,0,.12.3.26.26,0,0,1,0,.29,1.52,1.52,0,0,0,1.93,1.05,1.62,1.62,0,0,0,1.3-1.81c0-3.57,0-7.14,0-10.71,0-.75.16-1,.94-1,3.23.05,6.46,0,9.69,0,.72,0,.91.21.91.91,0,3.37,0,6.73,0,10.1a2.16,2.16,0,0,0,.1,1.1c.18.08.13.2.07.33.74,1.42,2,1.51,3,.21-.06-.08,0-.14.05-.16.29-.36.18-.79.19-1.19,0-3.47,0-6.94,0-10.42,0-.52,0-.89.72-.88,4.7,0,9.4,0,14.1,0h.31c.23,0,1.22.21,1.32.22a7.24,7.24,0,0,1,5.82,6.75C83.5,30.21,83.43,34,83.45,37.76Z"/><path class="cls-1" d="M39.28,74.26H34.21q-1.26,0-1.26,1.32v1.67q0,4.65,2.57,7.16c1.71,1.68,4.14,2.51,7.29,2.51h5.31c3.14,0,5.57-.83,7.28-2.51S58,80.35,58,77.25v-3q0-5.49-4.72-6.5A6.23,6.23,0,0,0,58,61.19v-3Q58,53.55,55.4,51t-7.28-2.51H42.81q-4.73,0-7.29,2.51T33,58.2v1.62a1.11,1.11,0,0,0,1.26,1.25h5.07a1.11,1.11,0,0,0,1.26-1.25v-1.5a3.76,3.76,0,0,1,.77-2.65A3.65,3.65,0,0,1,44,54.86h2.87a4.07,4.07,0,0,1,2.83.81,3.46,3.46,0,0,1,.87,2.65v2.81a3.5,3.5,0,0,1-.87,2.66,4.12,4.12,0,0,1-2.83.8h-3c-.84,0-1.25.44-1.25,1.32v3.58a1.1,1.1,0,0,0,1.25,1.25h3a4.07,4.07,0,0,1,2.83.81,3.48,3.48,0,0,1,.87,2.65v2.93a3.49,3.49,0,0,1-.87,2.66,4.07,4.07,0,0,1-2.83.8H44a3.74,3.74,0,0,1-2.69-.77,3.78,3.78,0,0,1-.77-2.69V75.58Q40.54,74.26,39.28,74.26Z"/></svg>