<svg id="LANDING" xmlns="http://www.w3.org/2000/svg" viewBox="0 0 100 100"><defs><style>.cls-1{fill:#e51690;}</style></defs><path class="cls-1" d="M42.85,67.91l-.64.63a.29.29,0,0,1-.47,0L40.63,67.4l-.24.24a3,3,0,0,1-2.13,1,3,3,0,0,1-2.14-1l-.32-.33a.3.3,0,0,1,0-.49l.88-.87a.3.3,0,0,1,.48,0l.21.21a1.62,1.62,0,0,0,1.09.59,1.69,1.69,0,0,0,1.12-.59l.73-.71a1.61,1.61,0,0,0,.59-1.11,1.75,1.75,0,0,0-.6-1.15l-.44-.45a1.21,1.21,0,0,0-1.15-.45,3.58,3.58,0,0,0-1.35.81,10.53,10.53,0,0,1-1.59,1.26,3.35,3.35,0,0,1-1.09.37,2.83,2.83,0,0,1-2.47-1.11l-.65-.65a3.09,3.09,0,0,1-1-2.16,3,3,0,0,1,1-2.12l.24-.23L30.7,57.24a.29.29,0,0,1,0-.47l.65-.63a.29.29,0,0,1,.47,0l1.12,1.15.07-.07a2.75,2.75,0,0,1,2.08-.88A3.1,3.1,0,0,1,37.2,57.4l.3.3a.3.3,0,0,1,0,.49l-.88.86a.31.31,0,0,1-.5,0L36,58.86a1.6,1.6,0,0,0-1.09-.59,1.63,1.63,0,0,0-1.11.58l-.64.63a1.61,1.61,0,0,0-.6,1.12,1.93,1.93,0,0,0,.65,1.18l.47.48a1.12,1.12,0,0,0,1.08.39,3.58,3.58,0,0,0,1.35-.82l.74-.67a3.73,3.73,0,0,1,2.12-1,2.93,2.93,0,0,1,2.27,1.12l.65.67a2.8,2.8,0,0,1,0,4.29l-.07.07,1.11,1.13A.3.3,0,0,1,42.85,67.91Z"/><path class="cls-1" d="M44,54.86l-.87.84a1.25,1.25,0,0,0-.35.53.75.75,0,0,0,0,.44c.1.32.08.55-.07.69l-.88.86a.29.29,0,0,1-.47,0L37,53.82a.3.3,0,0,1,0-.47l4.75-4.64a.3.3,0,0,1,.48,0l.78.8A.3.3,0,0,1,43,50l-3.61,3.53,2.49,2.55a1.53,1.53,0,0,1,.5-1.84l.83-.81a2.59,2.59,0,0,1,4.1,0l1.59,1.62a3,3,0,0,1,1,2.16,3,3,0,0,1-1,2.13l-1.19,1.17a2.78,2.78,0,0,1-4.3,0L43,60.13a.29.29,0,0,1,0-.48l.88-.86a.3.3,0,0,1,.49,0l.34.35a1.26,1.26,0,0,0,2,0l.79-.78a1.26,1.26,0,0,0,0-2L46.16,55A1.82,1.82,0,0,0,45,54.31,1.48,1.48,0,0,0,44,54.86Z"/><path class="cls-1" d="M56.09,52.3l-1.4,1.36a2.8,2.8,0,0,1-4.31,0L45.83,49a3,3,0,0,1-1-2.17,3.06,3.06,0,0,1,1-2.14l1.4-1.37a3.08,3.08,0,0,1,2.15-1,3,3,0,0,1,2.14,1L56.14,48a2.78,2.78,0,0,1,0,4.3Zm-2.35,0,1-1a1.27,1.27,0,0,0,0-2l-4.45-4.56a1.27,1.27,0,0,0-2,0l-1,1a1.26,1.26,0,0,0,0,2l4.45,4.55A1.26,1.26,0,0,0,53.74,52.27Z"/><path class="cls-1" d="M63.48,45.07l-1.4,1.37a3.05,3.05,0,0,1-2.17,1,3,3,0,0,1-2.13-1l-4.56-4.66a2.77,2.77,0,0,1,.07-4.3l1.39-1.37a3.07,3.07,0,0,1,2.16-1,3,3,0,0,1,2.14,1l4.55,4.66a2.77,2.77,0,0,1-.05,4.29Zm-2.35,0,1-1a1.26,1.26,0,0,0,0-2L57.67,37.5a1.26,1.26,0,0,0-2,0l-1,1a1.27,1.27,0,0,0,0,2L59.11,45A1.26,1.26,0,0,0,61.13,45Z"/><path class="cls-1" d="M77.61,15.5c-2.37,2.59-2.6,5.31-.69,7.31s4.64,2,7.47-.44c.21.19.46.37.67.58,2.77,2.77,5.55,5.54,8.31,8.32,1.78,1.78,1.78,3.5,0,5.3Q65,65,36.6,93.31c-1.85,1.85-3.54,1.86-5.38,0Q26.89,89,22.57,84.67c-.05-.06-.09-.13-.22-.31,1.3-1.22,2.32-2.71,1.9-4.57a6.6,6.6,0,0,0-1.61-3c-1.87-1.86-4.42-1.52-7.14.75-3.11-3.1-6.26-6.18-9.32-9.32C4.86,66.9,5.05,65,6.52,63.56l15-15L63.27,6.81c2-2,3.63-2,5.64,0Zm-2.48,0L67.75,8.15c-1.39-1.39-1.92-1.39-3.35,0Q51.5,21.09,38.61,34L8.16,64.43c-1.4,1.4-1.39,1.94,0,3.36l6.62,6.62c.24.24.51.46.75.67,3.42-2.14,6.52-1.38,8.43.54A8,8,0,0,1,25.91,79a6.26,6.26,0,0,1-1.12,5.43l7,7c2,2,2.21,2,4.21,0l26.8-26.81,29-29c1.39-1.39,1.39-1.93,0-3.36l-6.7-6.7c-.24-.24-.51-.46-.75-.67a6.71,6.71,0,0,1-8.55-.58C73.94,22.39,72.78,19.22,75.13,15.48Z"/><path class="cls-1" d="M33.9,95.21a4.42,4.42,0,0,1-3-1.53l-6.79-6.8L22.22,85a1.18,1.18,0,0,1-.17-.22l-.11-.15A.5.5,0,0,1,22,84c1.51-1.42,2.06-2.72,1.75-4.1a5.94,5.94,0,0,0-1.48-2.72c-2.08-2.09-4.66-.73-6.46.77a.51.51,0,0,1-.68,0l-2.7-2.68C10.26,73.07,8,70.83,5.82,68.6c-1.49-1.53-1.35-3.69.35-5.39Q12.08,57.27,18,51.36L62.91,6.46a4.6,4.6,0,0,1,3.18-1.67h0a4.56,4.56,0,0,1,3.16,1.66L78,15.15a.5.5,0,0,1,0,.69c-2.19,2.39-2.44,4.8-.7,6.63s4.15,1.79,6.78-.47a.49.49,0,0,1,.65,0l.2.17c.17.14.34.28.5.44l.24.24,8.08,8.07c2,2,2,4,0,6L37,93.67A4.44,4.44,0,0,1,33.9,95.21ZM23,84.4l1.75,1.77q3.39,3.4,6.79,6.8c1.66,1.66,3,1.65,4.68,0Q64.63,64.6,93,36.21c1.59-1.59,1.6-3,0-4.59q-4-4.05-8.08-8.07l-.23-.24L84.39,23c-2.9,2.34-5.67,2.4-7.83.14s-1.89-4.95.37-7.63L68.56,7.16A3.71,3.71,0,0,0,66.1,5.79h0a3.73,3.73,0,0,0-2.47,1.37L18.71,52.07,6.88,63.91c-1.32,1.33-1.45,2.85-.35,4,2.18,2.23,4.43,4.46,6.61,6.63l2.39,2.37c2.83-2.2,5.53-2.36,7.46-.43a7,7,0,0,1,1.74,3.21C25.1,81.3,24.54,82.85,23,84.4Zm10.87,9c-.68,0-1.36-.54-2.44-1.62l-7-7a.5.5,0,0,1-.05-.64,5.73,5.73,0,0,0,1.05-5A7.61,7.61,0,0,0,23.63,76c-2.05-2.07-5-2.24-7.8-.46a.51.51,0,0,1-.6-.06L15,75.26c-.18-.16-.37-.32-.55-.5L8.83,69.14l-1-1c-1.63-1.63-1.64-2.46,0-4.06L64,7.84c1.63-1.63,2.46-1.64,4.07,0l7.37,7.32a.51.51,0,0,1,.07.62c-2.7,4.32-.22,7.33.6,8.15a6.19,6.19,0,0,0,7.92.52.5.5,0,0,1,.61,0l.23.2c.18.16.37.32.54.5l6.71,6.7c1.61,1.61,1.61,2.49,0,4.07L36.38,91.73C35.27,92.84,34.59,93.39,33.9,93.39Zm-8.47-9,6.74,6.72c1.73,1.73,1.73,1.74,3.5,0L91.49,35.21c1.19-1.2,1.19-1.42,0-2.65l-6.7-6.7c-.15-.15-.3-.28-.45-.41a7.11,7.11,0,0,1-9.8-9.9l-7.1-7c-1.2-1.2-1.42-1.19-2.65,0L8.51,64.79c-1.2,1.19-1.19,1.42,0,2.65l1,1c1.87,1.87,3.74,3.75,5.62,5.62.15.15.3.28.45.42,3.71-2.15,6.93-1,8.73.8a8.32,8.32,0,0,1,2.05,3.57A6.56,6.56,0,0,1,25.43,84.34Z"/><path class="cls-1" d="M83,42.81a2.1,2.1,0,0,1-2-2,1.12,1.12,0,0,1,1.24-1.16,2.19,2.19,0,0,1,2,1.86A1.2,1.2,0,0,1,83,42.81Z"/><path class="cls-1" d="M83,43.31a2.57,2.57,0,0,1-1.81-.87,2.18,2.18,0,0,1-.66-1.66,1.62,1.62,0,0,1,1.72-1.62h0a2.68,2.68,0,0,1,2.5,2.34,1.71,1.71,0,0,1-.45,1.26,1.8,1.8,0,0,1-1.29.55h0Zm0-.5h0Zm-.77-2.65c-.4,0-.67.12-.72.7a1.22,1.22,0,0,0,.39.9,1.61,1.61,0,0,0,1.09.55h0a.83.83,0,0,0,.58-.23.7.7,0,0,0,.18-.53,1.71,1.71,0,0,0-1.51-1.39Z"/><path class="cls-1" d="M64.52,22.25c-.25.19-.65.71-1.15.83-.9.21-2.06-.92-2.06-1.89a1.12,1.12,0,0,1,1.25-1.25A2.19,2.19,0,0,1,64.52,22.25Z"/><path class="cls-1" d="M63.15,23.6a2.15,2.15,0,0,1-1.31-.5,2.6,2.6,0,0,1-1-1.91,1.72,1.72,0,0,1,.45-1.27,1.75,1.75,0,0,1,1.3-.48A2.62,2.62,0,0,1,65,22.23a.49.49,0,0,1-.19.41l-.2.18a2.56,2.56,0,0,1-1.14.75A1.87,1.87,0,0,1,63.15,23.6Zm-.58-3.16h0a.79.79,0,0,0-.59.18.72.72,0,0,0-.17.57,1.64,1.64,0,0,0,.65,1.12,1,1,0,0,0,.8.28,1.73,1.73,0,0,0,.68-.49L64,22A1.65,1.65,0,0,0,62.57,20.44Z"/><path class="cls-1" d="M70.05,27.79a2.22,2.22,0,0,1,2.33,1.93A1.14,1.14,0,0,1,71.16,31c-1,0-2.1-1.13-1.91-2.05C69.35,28.47,69.86,28.06,70.05,27.79Z"/><path class="cls-1" d="M71.13,31.52a2.59,2.59,0,0,1-1.86-1,2,2,0,0,1-.51-1.67,2.54,2.54,0,0,1,.71-1.16l.18-.21a.51.51,0,0,1,.41-.21,2.7,2.7,0,0,1,2.82,2.43,1.63,1.63,0,0,1-1.71,1.8Zm-.85-3.22-.07.08a1.91,1.91,0,0,0-.48.7,1.1,1.1,0,0,0,.31.82,1.73,1.73,0,0,0,1.11.62c.53,0,.74-.23.73-.79A1.68,1.68,0,0,0,70.28,28.3Z"/><path class="cls-1" d="M80.25,38.12c-.25.17-.68.67-1.17.75-.94.15-2-1-2-2a1.14,1.14,0,0,1,1.31-1.21A2.21,2.21,0,0,1,80.25,38.12Z"/><path class="cls-1" d="M78.9,39.38a2.05,2.05,0,0,1-1.34-.56,2.6,2.6,0,0,1-.94-2,1.65,1.65,0,0,1,1.82-1.69,2.17,2.17,0,0,1,1.49.7,3.11,3.11,0,0,1,.82,2.26.47.47,0,0,1-.22.4l-.19.15a2.48,2.48,0,0,1-1.18.67A1.14,1.14,0,0,1,78.9,39.38Zm-.51-3.2c-.66,0-.76.34-.77.72a1.66,1.66,0,0,0,.59,1.17,1,1,0,0,0,.79.31,1.87,1.87,0,0,0,.69-.44l.06-.06a2.06,2.06,0,0,0-.55-1.31,1.09,1.09,0,0,0-.78-.39Zm1.86,1.94h0Z"/><path class="cls-1" d="M60.56,17.87a1.12,1.12,0,0,1-1.22,1.28,2,2,0,0,1-1.93-1.9A1.12,1.12,0,0,1,58.62,16,2.16,2.16,0,0,1,60.56,17.87Z"/><path class="cls-1" d="M59.29,19.65A2.31,2.31,0,0,1,57.73,19a2.52,2.52,0,0,1-.82-1.72,1.62,1.62,0,0,1,1.69-1.81,2.26,2.26,0,0,1,1.6.68,2.57,2.57,0,0,1,.86,1.73h0a1.61,1.61,0,0,1-1.71,1.79Zm-.63-3.2h0c-.54,0-.74.24-.73.78a1.55,1.55,0,0,0,.5,1,1.26,1.26,0,0,0,.91.39c.55,0,.76-.23.74-.76a1.61,1.61,0,0,0-.54-1A1.37,1.37,0,0,0,58.66,16.45Z"/><path class="cls-1" d="M67.45,27a2,2,0,0,1-2.15-1.88,1.11,1.11,0,0,1,1.2-1.29,2.16,2.16,0,0,1,2,1.9C68.49,26.56,68.07,27,67.45,27Z"/><path class="cls-1" d="M67.43,27.52a2.54,2.54,0,0,1-2.63-2.37,1.84,1.84,0,0,1,.41-1.29,1.7,1.7,0,0,1,1.29-.51A2.66,2.66,0,0,1,69,25.74a1.56,1.56,0,0,1-1.51,1.78Zm0-.5h0Zm-.92-2.67h0a.74.74,0,0,0-.55.18.91.91,0,0,0-.16.6,1.56,1.56,0,0,0,1.63,1.39h0c.14,0,.55,0,.53-.76A1.68,1.68,0,0,0,66.53,24.35Z"/><path class="cls-1" d="M74.12,31.73c1.36.12,2.36,1.2,2.26,2.07A1.16,1.16,0,0,1,75,34.9c-1-.08-2-1.12-1.77-2C73.33,32.38,73.9,32,74.12,31.73Z"/><path class="cls-1" d="M75.15,35.41h-.23a2.69,2.69,0,0,1-1.86-1.12,1.84,1.84,0,0,1-.35-1.51,2.52,2.52,0,0,1,.83-1.17,1.88,1.88,0,0,0,.2-.2.49.49,0,0,1,.43-.17,3.25,3.25,0,0,1,2.21,1.15,2,2,0,0,1,.49,1.48A1.63,1.63,0,0,1,75.15,35.41Zm-.85-3.16-.08.08a1.89,1.89,0,0,0-.54.68.89.89,0,0,0,.19.69,1.69,1.69,0,0,0,1.14.7c.65.06.82-.22.87-.66A1,1,0,0,0,75.6,33,2.24,2.24,0,0,0,74.3,32.25Z"/></svg>