<svg xmlns="http://www.w3.org/2000/svg" xmlns:xlink="http://www.w3.org/1999/xlink" viewBox="0 0 75 75"><defs><style>.cls-1,.cls-2,.cls-5{fill:none;stroke:#fff;stroke-linecap:round;stroke-width:3px;}.cls-1,.cls-2{stroke-linejoin:round;}.cls-1{filter:url(#luminosity-invert-noclip);}.cls-3{mask:url(#mask);}.cls-4{fill:#fff;}.cls-5{stroke-miterlimit:10;}</style><filter id="luminosity-invert-noclip" x="23.84" y="22.61" width="21.25" height="21.25" filterUnits="userSpaceOnUse" color-interpolation-filters="sRGB"><feColorMatrix values="-1 0 0 0 1 0 -1 0 0 1 0 0 -1 0 1 0 0 0 1 0" result="invert"/><feFlood flood-color="#fff" result="bg"/><feBlend in="invert" in2="bg"/></filter><mask id="mask" x="23.84" y="22.61" width="21.25" height="21.25" maskUnits="userSpaceOnUse"><path class="cls-1" d="M34.47,25.27a8,8,0,0,0-8,8"/></mask></defs><title>icon_eye_blanco</title><g id="TRIVIA"><path class="cls-2" d="M43.1,49.24a40.47,40.47,0,0,1-9,1c-14,0-25.95-7-30.67-16.92,4.75-9.85,16.67-16.83,30.62-16.83s26,7,30.67,16.93a24.36,24.36,0,0,1-3.18,5"/><g class="cls-3"><circle class="cls-4" cx="34.47" cy="33.24" r="10.63"/></g><path class="cls-5" d="M53.53,31.17l-13.86,24a2.24,2.24,0,0,0,1.94,3.35H69.32a2.23,2.23,0,0,0,1.93-3.35l-13.85-24A2.23,2.23,0,0,0,53.53,31.17Z"/><path class="cls-4" d="M57.17,52.32a1.55,1.55,0,1,1-3.09,0,1.55,1.55,0,1,1,3.09,0Zm0-12.53v3.55L56.59,49H54.72l-.54-5.67V39.79Z"/></g></svg>